<mxfile host="app.diagrams.net" modified="2023-10-28T14:44:24.902Z" agent="Mozilla/5.0 (Windows NT 10.0; Win64; x64) AppleWebKit/537.36 (KHTML, like Gecko) Chrome/114.0.0.0 Safari/537.36" etag="wq-zqQjrFEI3ZsYBWQyQ" version="22.0.8" type="device">
  <diagram name="Page-1" id="82bxLdPQdxlyTPgqW2KG">
    <mxGraphModel dx="2991" dy="1126" grid="1" gridSize="10" guides="1" tooltips="1" connect="1" arrows="1" fold="1" page="1" pageScale="1" pageWidth="850" pageHeight="1100" math="0" shadow="0">
      <root>
        <mxCell id="0" />
        <mxCell id="1" parent="0" />
        <mxCell id="X8OMRclymHyqLN9soOpE-1" value="User/Holder" style="rounded=1;whiteSpace=wrap;html=1;" vertex="1" parent="1">
          <mxGeometry x="40" y="40" width="120" height="60" as="geometry" />
        </mxCell>
        <mxCell id="X8OMRclymHyqLN9soOpE-2" value="Issuer" style="rounded=1;whiteSpace=wrap;html=1;" vertex="1" parent="1">
          <mxGeometry x="360" y="40" width="120" height="60" as="geometry" />
        </mxCell>
        <mxCell id="X8OMRclymHyqLN9soOpE-3" value="Verifier" style="rounded=1;whiteSpace=wrap;html=1;" vertex="1" parent="1">
          <mxGeometry x="680" y="40" width="120" height="60" as="geometry" />
        </mxCell>
        <mxCell id="X8OMRclymHyqLN9soOpE-5" value="" style="endArrow=none;dashed=1;html=1;dashPattern=1 3;strokeWidth=2;rounded=0;entryX=0.5;entryY=1;entryDx=0;entryDy=0;" edge="1" parent="1" target="X8OMRclymHyqLN9soOpE-1">
          <mxGeometry width="50" height="50" relative="1" as="geometry">
            <mxPoint x="100" y="800" as="sourcePoint" />
            <mxPoint x="120" y="220" as="targetPoint" />
          </mxGeometry>
        </mxCell>
        <mxCell id="X8OMRclymHyqLN9soOpE-7" value="" style="endArrow=none;dashed=1;html=1;dashPattern=1 3;strokeWidth=2;rounded=0;entryX=0.5;entryY=1;entryDx=0;entryDy=0;" edge="1" parent="1">
          <mxGeometry width="50" height="50" relative="1" as="geometry">
            <mxPoint x="420" y="800" as="sourcePoint" />
            <mxPoint x="419.5" y="100" as="targetPoint" />
          </mxGeometry>
        </mxCell>
        <mxCell id="X8OMRclymHyqLN9soOpE-8" value="" style="endArrow=none;dashed=1;html=1;dashPattern=1 3;strokeWidth=2;rounded=0;entryX=0.5;entryY=1;entryDx=0;entryDy=0;" edge="1" parent="1">
          <mxGeometry width="50" height="50" relative="1" as="geometry">
            <mxPoint x="740" y="800" as="sourcePoint" />
            <mxPoint x="740" y="100" as="targetPoint" />
          </mxGeometry>
        </mxCell>
        <mxCell id="X8OMRclymHyqLN9soOpE-11" value="" style="endArrow=classic;html=1;rounded=0;color=#fffff" edge="1" parent="1">
          <mxGeometry width="50" height="50" relative="1" as="geometry">
            <mxPoint x="100" y="260" as="sourcePoint" />
            <mxPoint x="100" y="300" as="targetPoint" />
            <Array as="points">
              <mxPoint x="140" y="260" />
              <mxPoint x="140" y="300" />
            </Array>
          </mxGeometry>
        </mxCell>
        <mxCell id="X8OMRclymHyqLN9soOpE-12" value="" style="endArrow=classic;html=1;rounded=0;" edge="1" parent="1">
          <mxGeometry width="50" height="50" relative="1" as="geometry">
            <mxPoint x="420" y="120" as="sourcePoint" />
            <mxPoint x="420" y="200" as="targetPoint" />
            <Array as="points">
              <mxPoint x="460" y="120" />
              <mxPoint x="460" y="200" />
            </Array>
          </mxGeometry>
        </mxCell>
        <mxCell id="X8OMRclymHyqLN9soOpE-13" value="&lt;font color=&quot;#ff0000&quot;&gt;-Create Identity&lt;br&gt;-Create Credential&lt;/font&gt;&lt;br&gt;-Generate QR-Code &lt;br&gt;for Holder" style="text;html=1;align=center;verticalAlign=middle;resizable=0;points=[];autosize=1;strokeColor=none;fillColor=none;" vertex="1" parent="1">
          <mxGeometry x="480" y="120" width="130" height="70" as="geometry" />
        </mxCell>
        <mxCell id="X8OMRclymHyqLN9soOpE-15" value="" style="endArrow=classic;html=1;rounded=0;" edge="1" parent="1">
          <mxGeometry width="50" height="50" relative="1" as="geometry">
            <mxPoint x="420" y="240" as="sourcePoint" />
            <mxPoint x="100" y="240" as="targetPoint" />
          </mxGeometry>
        </mxCell>
        <mxCell id="X8OMRclymHyqLN9soOpE-16" value="Provide QR-Code" style="text;html=1;align=center;verticalAlign=middle;resizable=0;points=[];autosize=1;strokeColor=none;fillColor=none;" vertex="1" parent="1">
          <mxGeometry x="120" y="208" width="120" height="30" as="geometry" />
        </mxCell>
        <mxCell id="X8OMRclymHyqLN9soOpE-18" value="Scan QR-Code" style="text;html=1;align=center;verticalAlign=middle;resizable=0;points=[];autosize=1;strokeColor=none;fillColor=none;" vertex="1" parent="1">
          <mxGeometry x="140" y="270" width="100" height="30" as="geometry" />
        </mxCell>
        <mxCell id="X8OMRclymHyqLN9soOpE-19" value="" style="rounded=1;whiteSpace=wrap;html=1;fillColor=#FF3333;" vertex="1" parent="1">
          <mxGeometry x="340" y="820" width="40" height="10" as="geometry" />
        </mxCell>
        <mxCell id="X8OMRclymHyqLN9soOpE-20" value="Write into DLT" style="text;html=1;align=center;verticalAlign=middle;resizable=0;points=[];autosize=1;strokeColor=none;fillColor=none;" vertex="1" parent="1">
          <mxGeometry x="410" y="810" width="100" height="30" as="geometry" />
        </mxCell>
        <mxCell id="X8OMRclymHyqLN9soOpE-21" value="" style="rounded=1;whiteSpace=wrap;html=1;fillColor=#0000CC;" vertex="1" parent="1">
          <mxGeometry x="340" y="850" width="40" height="10" as="geometry" />
        </mxCell>
        <mxCell id="X8OMRclymHyqLN9soOpE-22" value="Read from DLT" style="text;html=1;align=center;verticalAlign=middle;resizable=0;points=[];autosize=1;strokeColor=none;fillColor=none;" vertex="1" parent="1">
          <mxGeometry x="410" y="840" width="100" height="30" as="geometry" />
        </mxCell>
        <mxCell id="X8OMRclymHyqLN9soOpE-26" value="&lt;font color=&quot;#ff0000&quot;&gt;Retrieve Credential&lt;/font&gt;" style="text;html=1;align=center;verticalAlign=middle;resizable=0;points=[];autosize=1;strokeColor=none;fillColor=none;" vertex="1" parent="1">
          <mxGeometry x="130" y="330" width="130" height="30" as="geometry" />
        </mxCell>
        <mxCell id="X8OMRclymHyqLN9soOpE-27" value="" style="endArrow=classic;html=1;rounded=0;color=#fffff" edge="1" parent="1">
          <mxGeometry width="50" height="50" relative="1" as="geometry">
            <mxPoint x="740" y="360" as="sourcePoint" />
            <mxPoint x="740" y="400" as="targetPoint" />
            <Array as="points">
              <mxPoint x="780" y="360" />
              <mxPoint x="780" y="400" />
            </Array>
          </mxGeometry>
        </mxCell>
        <mxCell id="X8OMRclymHyqLN9soOpE-28" value="" style="endArrow=classic;html=1;rounded=0;color=#fffff" edge="1" parent="1">
          <mxGeometry width="50" height="50" relative="1" as="geometry">
            <mxPoint x="100" y="320" as="sourcePoint" />
            <mxPoint x="100" y="360" as="targetPoint" />
            <Array as="points">
              <mxPoint x="140" y="320" />
              <mxPoint x="140" y="360" />
            </Array>
          </mxGeometry>
        </mxCell>
        <mxCell id="X8OMRclymHyqLN9soOpE-31" value="" style="endArrow=classic;html=1;rounded=0;color=#fffff" edge="1" parent="1">
          <mxGeometry width="50" height="50" relative="1" as="geometry">
            <mxPoint x="740" y="690" as="sourcePoint" />
            <mxPoint x="740" y="730" as="targetPoint" />
            <Array as="points">
              <mxPoint x="780" y="690" />
              <mxPoint x="780" y="730" />
            </Array>
          </mxGeometry>
        </mxCell>
        <mxCell id="X8OMRclymHyqLN9soOpE-32" value="" style="endArrow=classic;html=1;rounded=0;color=#fffff" edge="1" parent="1">
          <mxGeometry width="50" height="50" relative="1" as="geometry">
            <mxPoint x="740" y="620" as="sourcePoint" />
            <mxPoint x="740" y="660" as="targetPoint" />
            <Array as="points">
              <mxPoint x="780" y="620" />
              <mxPoint x="780" y="660" />
            </Array>
          </mxGeometry>
        </mxCell>
        <mxCell id="X8OMRclymHyqLN9soOpE-33" value="" style="endArrow=classic;html=1;rounded=0;color=#fffff" edge="1" parent="1">
          <mxGeometry width="50" height="50" relative="1" as="geometry">
            <mxPoint x="100" y="480" as="sourcePoint" />
            <mxPoint x="100" y="520" as="targetPoint" />
            <Array as="points">
              <mxPoint x="140" y="480" />
              <mxPoint x="140" y="520" />
            </Array>
          </mxGeometry>
        </mxCell>
        <mxCell id="X8OMRclymHyqLN9soOpE-34" value="Generate QR-Code &lt;br&gt;Verification Request" style="text;html=1;align=center;verticalAlign=middle;resizable=0;points=[];autosize=1;strokeColor=none;fillColor=none;" vertex="1" parent="1">
          <mxGeometry x="780" y="360" width="130" height="40" as="geometry" />
        </mxCell>
        <mxCell id="X8OMRclymHyqLN9soOpE-35" value="" style="endArrow=classic;html=1;rounded=0;" edge="1" parent="1">
          <mxGeometry width="50" height="50" relative="1" as="geometry">
            <mxPoint x="100" y="440" as="sourcePoint" />
            <mxPoint x="730" y="440" as="targetPoint" />
          </mxGeometry>
        </mxCell>
        <mxCell id="X8OMRclymHyqLN9soOpE-36" value="Scan QR-Code for &lt;br&gt;Verification purpose&lt;br&gt;and approve request" style="text;html=1;align=center;verticalAlign=middle;resizable=0;points=[];autosize=1;strokeColor=none;fillColor=none;" vertex="1" parent="1">
          <mxGeometry x="130" y="380" width="130" height="60" as="geometry" />
        </mxCell>
        <mxCell id="X8OMRclymHyqLN9soOpE-37" value="&lt;font color=&quot;#0000cc&quot;&gt;Generate zk-Proof&lt;/font&gt;" style="text;html=1;align=center;verticalAlign=middle;resizable=0;points=[];autosize=1;strokeColor=none;fillColor=none;" vertex="1" parent="1">
          <mxGeometry x="135" y="488" width="120" height="30" as="geometry" />
        </mxCell>
        <mxCell id="X8OMRclymHyqLN9soOpE-38" value="" style="endArrow=classic;html=1;rounded=0;" edge="1" parent="1">
          <mxGeometry width="50" height="50" relative="1" as="geometry">
            <mxPoint x="100" y="600" as="sourcePoint" />
            <mxPoint x="730" y="600" as="targetPoint" />
          </mxGeometry>
        </mxCell>
        <mxCell id="X8OMRclymHyqLN9soOpE-40" value="Provide zk-Proof" style="text;html=1;align=center;verticalAlign=middle;resizable=0;points=[];autosize=1;strokeColor=none;fillColor=none;" vertex="1" parent="1">
          <mxGeometry x="140" y="570" width="110" height="30" as="geometry" />
        </mxCell>
        <mxCell id="X8OMRclymHyqLN9soOpE-41" value="&lt;font color=&quot;#0000cc&quot;&gt;Verify proof&lt;/font&gt;" style="text;html=1;align=center;verticalAlign=middle;resizable=0;points=[];autosize=1;strokeColor=none;fillColor=none;" vertex="1" parent="1">
          <mxGeometry x="780" y="628" width="80" height="30" as="geometry" />
        </mxCell>
        <mxCell id="X8OMRclymHyqLN9soOpE-42" value="[optional} &lt;br&gt;save zk-proof" style="text;html=1;align=center;verticalAlign=middle;resizable=0;points=[];autosize=1;strokeColor=none;fillColor=none;" vertex="1" parent="1">
          <mxGeometry x="770" y="690" width="100" height="40" as="geometry" />
        </mxCell>
        <mxCell id="X8OMRclymHyqLN9soOpE-43" value="" style="endArrow=classic;html=1;rounded=0;" edge="1" parent="1">
          <mxGeometry width="50" height="50" relative="1" as="geometry">
            <mxPoint x="740" y="760" as="sourcePoint" />
            <mxPoint x="110" y="760" as="targetPoint" />
          </mxGeometry>
        </mxCell>
        <mxCell id="X8OMRclymHyqLN9soOpE-44" value="inform about successful verifikation" style="text;html=1;align=center;verticalAlign=middle;resizable=0;points=[];autosize=1;strokeColor=none;fillColor=none;" vertex="1" parent="1">
          <mxGeometry x="480" y="730" width="210" height="30" as="geometry" />
        </mxCell>
      </root>
    </mxGraphModel>
  </diagram>
</mxfile>
